<mxfile host="app.diagrams.net" modified="2023-11-16T09:55:59.834Z" agent="Mozilla/5.0 (Macintosh; Intel Mac OS X 10_15_7) AppleWebKit/537.36 (KHTML, like Gecko) Chrome/119.0.0.0 Safari/537.36" version="22.1.2" etag="XTYSXa9GnqMgdUw5nJ5B" type="github">
  <diagram name="Page-1" id="33asBGKeddOVO38RR1Co">
    <mxGraphModel>
      <root>
        <mxCell id="0" />
        <mxCell id="1" parent="0" />
      </root>
    </mxGraphModel>
  </diagram>
</mxfile>
